<svg width="32" height="32" viewBox="0 0 32 32" xmlns="http://www.w3.org/2000/svg">
  <!-- Robot head -->
  <rect x="6" y="8" width="20" height="18" rx="6" fill="#4A90E2" stroke="#2E5BBA" stroke-width="1.5"/>
  
  <!-- Eyes -->
  <circle cx="12" cy="16" r="3" fill="#FFFFFF"/>
  <circle cx="20" cy="16" r="3" fill="#FFFFFF"/>
  <circle cx="12" cy="16" r="1.5" fill="#333"/>
  <circle cx="20" cy="16" r="1.5" fill="#333"/>
  
  <!-- Eye glow effect -->
  <circle cx="12.5" cy="15.5" r="0.5" fill="#00BFFF" opacity="0.8"/>
  <circle cx="20.5" cy="15.5" r="0.5" fill="#00BFFF" opacity="0.8"/>
  
  <!-- Mouth -->
  <rect x="13" y="21" width="6" height="1.5" rx="0.75" fill="#2E5BBA"/>
  
  <!-- Antenna -->
  <line x1="16" y1="4" x2="16" y2="8" stroke="#2E5BBA" stroke-width="2" stroke-linecap="round"/>
  <circle cx="16" cy="4" r="2" fill="#FF6B6B" stroke="#E74C3C" stroke-width="1"/>
  <circle cx="16" cy="4" r="0.5" fill="#FFFFFF" opacity="0.9"/>
  
  <!-- Side panels -->
  <rect x="4" y="14" width="2" height="4" rx="1" fill="#34495E"/>
  <rect x="26" y="14" width="2" height="4" rx="1" fill="#34495E"/>
  
  <!-- Details on head -->
  <rect x="8" y="10" width="16" height="1" rx="0.5" fill="#2E5BBA" opacity="0.5"/>
  <rect x="8" y="12" width="12" height="0.5" rx="0.25" fill="#2E5BBA" opacity="0.3"/>
</svg>
